<svg xmlns="http://www.w3.org/2000/svg" viewBox="0 0 100 100" fill="none">
  <!-- Background gradient circle -->
  <defs>
    <linearGradient id="gradientBg" x1="0%" y1="0%" x2="100%" y2="100%">
      <stop offset="0%" style="stop-color:#6366f1;stop-opacity:1" />
      <stop offset="100%" style="stop-color:#8b5cf6;stop-opacity:1" />
    </linearGradient>
    <linearGradient id="lockGradient" x1="0%" y1="0%" x2="100%" y2="100%">
      <stop offset="0%" style="stop-color:#ffffff;stop-opacity:1" />
      <stop offset="100%" style="stop-color:#e0e7ff;stop-opacity:1" />
    </linearGradient>
  </defs>

  <!-- Main circle background -->
  <circle cx="50" cy="50" r="48" fill="url(#gradientBg)"/>

  <!-- Shield/Lock icon representing security and bidding -->
  <g transform="translate(50, 50)">
    <!-- Shield body -->
    <path d="M 0,-25 L 15,-20 L 15,5 C 15,15 8,20 0,25 C -8,20 -15,15 -15,5 L -15,-20 Z"
          fill="url(#lockGradient)"
          stroke="rgba(255,255,255,0.3)"
          stroke-width="1"/>

    <!-- Lock body -->
    <rect x="-8" y="2" width="16" height="12" rx="2"
          fill="rgba(99, 102, 241, 0.9)"/>

    <!-- Lock shackle -->
    <path d="M -6,-6 L -6,-2 C -6,-8 6,-8 6,-2 L 6,-6"
          stroke="rgba(99, 102, 241, 0.9)"
          stroke-width="3"
          fill="none"
          stroke-linecap="round"/>

    <!-- Keyhole -->
    <circle cx="0" cy="7" r="2" fill="rgba(255,255,255,0.9)"/>
    <rect x="-1" y="7" width="2" height="4" fill="rgba(255,255,255,0.9)"/>

    <!-- Sparkles for encryption -->
    <g opacity="0.8">
      <path d="M 20,-10 L 21,-8 L 23,-9 L 22,-11 Z" fill="#fbbf24"/>
      <path d="M -22,8 L -21,10 L -19,9 L -20,7 Z" fill="#fbbf24"/>
      <path d="M 18,15 L 19,17 L 21,16 L 20,14 Z" fill="#fbbf24"/>
    </g>
  </g>
</svg>
